<svg width="226" height="68" viewBox="0 0 226 68" fill="none" xmlns="http://www.w3.org/2000/svg">
<g clip-path="url(#clip0_1627_15940)">
<path d="M220.855 21.1543H222.353C223.044 21.1543 223.39 21.4681 223.39 22.0005C223.406 22.1717 223.364 22.3434 223.27 22.4877C223.176 22.6319 223.037 22.7402 222.874 22.795C223.06 22.8149 223.338 22.9658 223.338 23.4584C223.31 23.7448 223.369 24.0331 223.509 24.2848H222.921C222.852 24.1417 222.823 23.9823 222.838 23.8239C222.838 23.2479 222.719 22.9936 222.214 22.9936H221.42V24.2848H220.871L220.855 21.1543ZM221.404 22.5805H222.305C222.659 22.5805 222.842 22.4136 222.842 22.0799C222.842 21.6826 222.584 21.5992 222.298 21.5992H221.404V22.5805Z" fill="white"/>
<path d="M222.099 25.9139C221.47 25.9139 220.856 25.7275 220.333 25.3782C219.811 25.029 219.403 24.5327 219.163 23.952C218.922 23.3712 218.859 22.7322 218.982 22.1157C219.105 21.4992 219.407 20.9329 219.852 20.4885C220.296 20.044 220.862 19.7413 221.479 19.6187C222.095 19.4961 222.735 19.559 223.315 19.7995C223.896 20.0401 224.392 20.4474 224.742 20.9701C225.091 21.4927 225.277 22.1072 225.277 22.7357C225.271 23.5767 224.934 24.3815 224.339 24.9761C223.745 25.5708 222.94 25.9076 222.099 25.9139ZM222.099 20.1138C221.583 20.113 221.079 20.2653 220.65 20.5513C220.221 20.8374 219.886 21.2443 219.688 21.7207C219.49 22.1971 219.438 22.7214 219.539 23.2273C219.639 23.7332 219.888 24.1979 220.252 24.5626C220.617 24.9273 221.082 25.1756 221.588 25.276C222.094 25.3765 222.618 25.3245 223.094 25.1268C223.571 24.929 223.978 24.5944 224.264 24.1652C224.55 23.7361 224.702 23.2317 224.701 22.7159C224.7 22.0261 224.426 21.3648 223.938 20.8771C223.45 20.3893 222.789 20.1148 222.099 20.1138Z" fill="white"/>
<path d="M18.3138 0.325684H25.1786L29.1155 25.7944H21.7462L21.1344 21.2775H11.3816L7.98096 25.7944H0.357422L18.3138 0.325684ZM20.5544 15.8191L19.6526 8.55702L14.9212 15.823L20.5544 15.8191Z" fill="#0D64A3"/>
<path d="M29.0439 15.1358C29.0439 7.08324 35.6187 0 45.2643 0C50.3215 0 54.0042 2.06181 55.7362 4.29842L51.0406 8.85107C50.2288 8.01759 49.2566 7.35729 48.1826 6.91006C47.1085 6.46283 45.955 6.23794 44.7916 6.24898C39.6986 6.24898 36.1947 10.1899 36.1947 14.8498C36.1947 18.3894 38.7611 20.2288 41.8677 20.2288C43.0232 20.2496 44.1692 20.0163 45.2246 19.5455L46.2376 16.1488H41.3592L42.698 11.0162H54.2942L50.6791 23.7684C47.8009 25.4258 44.5375 26.2972 41.2162 26.295C35.1857 26.295 29.0439 22.8984 29.0439 15.1318" fill="#0D64A3"/>
<path d="M58.9504 0.508301H68.4848C72.7117 0.508301 75.4926 1.44585 77.1889 3.14218C78.5277 4.48096 79.1395 6.28852 79.1395 8.30663C79.1395 12.5335 76.7201 15.8547 71.5557 17.265L75.4568 25.7903H67.73L64.3612 18.135H61.2625L59.1967 25.7943H52.1611L58.9504 0.508301ZM66.717 12.6448C69.8593 12.6448 71.9212 11.306 71.9212 9.1409C71.9365 8.51162 71.7023 7.9018 71.2696 7.44457C70.6896 6.86456 69.6448 6.57456 68.163 6.57456H64.3612L62.7006 12.6448H66.717Z" fill="#0D64A3"/>
<path d="M78.4912 14.9213C78.5248 10.9528 80.1284 7.15904 82.9513 4.36958C85.7743 1.58013 89.5869 0.0219409 93.5555 0.0357353C100.742 0.0357353 105.62 4.94991 105.62 11.3816C105.586 15.3495 103.982 19.1422 101.159 21.9308C98.3361 24.7194 94.5241 26.277 90.5562 26.2632C83.3696 26.2632 78.4912 21.3491 78.4912 14.9213ZM98.4697 11.922C98.4697 8.70807 96.5191 6.32446 92.9398 6.32446C88.5341 6.32446 85.646 10.6229 85.646 14.3771C85.646 17.5949 87.5965 19.9785 91.1719 19.9785C95.6134 19.9785 98.4697 15.6801 98.4697 11.922Z" fill="#0D64A3"/>
<path d="M102.622 21.6031L107.139 16.9432C109.594 19.2195 112.16 20.3755 114.941 20.3755C116.602 20.3755 117.794 19.6525 117.794 18.4965C117.794 17.5192 117.106 17.0147 113.567 15.6441C109.558 14.1266 106.992 12.3905 106.992 8.67208C106.992 3.65064 111.545 0.0712891 117.718 0.0712891C122.16 0.0712891 125.663 1.51732 128.087 3.82941L123.753 8.67208C121.838 7.00754 119.637 5.89122 117.071 5.89122C115.374 5.89122 114.326 6.68577 114.326 7.6988C114.326 8.71183 115.084 9.07333 118.552 10.4439C122.454 11.9257 125.127 13.6975 125.127 17.4874C125.127 22.6916 120.646 26.2273 114.361 26.2273C109.411 26.2273 105.331 24.527 102.622 21.6031Z" fill="#0D64A3"/>
<path d="M126.172 17.412C126.195 16.0449 126.39 14.6862 126.752 13.3678L130.22 0.508301H137.299L133.724 13.8723C133.494 14.6465 133.373 15.4486 133.362 16.2559C133.362 18.5323 134.769 19.9425 137.299 19.9425C137.926 19.9564 138.549 19.8451 139.132 19.6152C139.716 19.3854 140.247 19.0415 140.696 18.6038C141.633 17.702 142.285 16.4387 142.825 14.4126L146.583 0.508301H153.663L149.654 15.4614C148.748 18.7865 147.485 21.2416 145.717 23.0094C143.477 25.2461 140.299 26.2591 136.394 26.2591C129.894 26.2591 126.172 22.9697 126.172 17.408" fill="#0D64A3"/>
<path d="M155.685 0.508301H163.956C168.076 0.508301 170.785 1.3386 172.624 3.18192C173.963 4.51673 174.611 6.24881 174.611 8.34637C174.611 14.6311 169.518 18.5323 162.041 18.5323H157.886L155.935 25.7943H148.892L155.685 0.508301ZM161.97 13.0778C165.438 13.0778 167.424 11.5245 167.424 9.1409C167.428 8.8123 167.366 8.48629 167.241 8.18202C167.117 7.87776 166.933 7.60138 166.701 7.36909C166.014 6.68579 165.005 6.39578 163.702 6.39578H161.104L159.332 13.0778H161.97Z" fill="#0D64A3"/>
<path d="M177.788 0.504395H198.053L196.428 6.46736H183.136L182.087 10.293H194.152L192.67 15.823H180.605L179.52 19.8314H193.031L191.442 25.7904H170.995L177.788 0.504395Z" fill="#0D64A3"/>
<path d="M199.789 0.508301H209.324C213.547 0.508301 216.331 1.44585 218.028 3.14218C219.363 4.48096 219.978 6.28852 219.978 8.30663C219.978 12.5335 217.559 15.8547 212.391 17.265L216.292 25.7903H208.569L205.208 18.131H202.101L200.044 25.7903H192.996L199.789 0.508301ZM207.556 12.6448C210.698 12.6448 212.756 11.306 212.756 9.14091C212.773 8.51218 212.54 7.90244 212.109 7.44457C211.529 6.86456 210.48 6.57456 209.002 6.57456H205.208L203.547 12.6448H207.556Z" fill="#0D64A3"/>
<path d="M205.358 27.3756C202.665 22.8269 197.445 19.756 191.422 19.756C189.209 19.7362 187.015 20.1638 184.971 21.013C182.927 21.8622 181.076 23.1156 179.528 24.698C156.733 44.029 126.263 55.8437 92.7851 55.8437C62.9227 55.8437 35.4478 46.4444 13.6855 30.6928C37.0249 53.6508 70.28 68.004 107.186 68.004C128.066 68.004 147.973 63.6619 165.318 55.4345L165.715 55.2279C165.715 55.2279 182.166 48.3552 193.329 36.2386C193.329 36.2386 187.994 48.6214 171.305 54.9935L173.291 55.1802C173.291 55.1802 187.946 57.7505 199.729 47.4852C202.269 45.1465 204.321 42.3288 205.768 39.1942C207.925 34.1053 206.884 30.0849 205.37 27.3796" fill="#E87722"/>
</g>
<defs>
<clipPath id="clip0_1627_15940">
<rect width="224.936" height="68" fill="white" transform="translate(0.357422)"/>
</clipPath>
</defs>
</svg>
